<svg width="73" height="73" viewBox="0 0 73 73" fill="none" xmlns="http://www.w3.org/2000/svg">
<path d="M68.8537 30.9827L60.2251 29.5723C59.7199 27.8407 59.0293 26.1763 58.165 24.601L63.202 17.4222C63.6093 16.8426 63.5392 16.0527 63.0385 15.5505L57.3605 9.87544C56.8539 9.37028 56.0568 9.30458 55.4757 9.7236L48.4049 14.8059C46.8149 13.9269 45.136 13.2291 43.3942 12.7224L41.8889 4.12888C41.7663 3.431 41.1604 2.92 40.4508 2.92H32.4208C31.7054 2.92 31.0951 3.4383 30.9798 4.14494L29.584 12.6918C27.832 13.1955 26.1501 13.8861 24.566 14.7533L17.5142 9.7163C16.9317 9.3002 16.1389 9.36736 15.6323 9.87106L9.95725 15.5461C9.45647 16.0469 9.38639 16.8353 9.79373 17.4149L14.7563 24.5149C13.873 26.1136 13.1693 27.8057 12.6568 29.5665L4.14353 30.9841C3.43981 31.1009 2.92297 31.7112 2.92297 32.4237V40.4537C2.92297 41.1618 3.43105 41.7677 4.12747 41.8918L12.6407 43.4014C13.1503 45.1578 13.854 46.8499 14.7402 48.453L9.71635 55.48C9.30171 56.0596 9.36741 56.8553 9.87111 57.3619L15.5476 63.0428C16.0484 63.5436 16.8382 63.6137 17.4179 63.2063L24.5281 58.2263C26.1238 59.1037 27.8101 59.8001 29.5578 60.3053L30.9827 68.8624C31.0981 69.5646 31.7069 70.08 32.4208 70.08H40.4508C41.1589 70.08 41.7648 69.5719 41.8875 68.8755L43.4132 60.2761C45.1637 59.7607 46.8412 59.0599 48.421 58.181L55.5823 63.2049C56.1633 63.6151 56.9517 63.5436 57.454 63.0428L63.1305 57.3619C63.6356 56.8553 63.7013 56.0567 63.2823 55.4756L58.1752 48.3844C59.041 46.8076 59.7286 45.1403 60.2294 43.4087L68.8697 41.8918C69.5691 41.7691 70.0771 41.1618 70.0771 40.4537V32.4237C70.0786 31.7083 69.5603 31.098 68.8537 30.9827ZM36.5 46.72C30.8557 46.72 26.2801 42.1444 26.2801 36.5C26.2801 30.8556 30.8557 26.28 36.5 26.28C42.1444 26.28 46.7201 30.8556 46.7201 36.5C46.7201 42.1444 42.1444 46.72 36.5 46.72Z" fill="black"/>
</svg>
